# Exported from ProBuilder
# http://www.procore3d.com/probuilder
# 1/25/2019 11:50:01 PM

mtllib ./Player.mtl
o Player

g Cone_up
v -0.5 1 0
v 0 1 0.5
v 0 1.5 0
v -0.5 1 0
v 0 1 0.5
v 0 1 0
v 0 1 0.5
v 0.5 1 -4.371139E-08
v 0 1.5 0
v 0 1 0.5
v 0.5 1 -4.371139E-08
v 0 1 0
v 0.5 1 -4.371139E-08
v 0 1 -0.5
v 0 1.5 0
v 0.5 1 -4.371139E-08
v 0 1 -0.5
v 0 1 0
v 0 1 -0.5
v -0.5 1 0
v 0 1.5 0
v 0 1 -0.5
v -0.5 1 0
v 0 1 0

vn -0.5773503 0.5773503 0.5773503
vn -0.5773503 0.5773503 0.5773503
vn -0.5773503 0.5773503 0.5773503
vn 0 -1 0
vn 0 -1 0
vn 0 -1 0
vn 0.5773503 0.5773503 0.5773503
vn 0.5773503 0.5773503 0.5773503
vn 0.5773503 0.5773503 0.5773503
vn 0 -1 0
vn 0 -1 0
vn 0 -1 0
vn 0.5773502 0.5773503 -0.5773503
vn 0.5773502 0.5773503 -0.5773503
vn 0.5773502 0.5773503 -0.5773503
vn 0 -1 0
vn 0 -1 0
vn 0 -1 0
vn -0.5773503 0.5773503 -0.5773503
vn -0.5773503 0.5773503 -0.5773503
vn -0.5773503 0.5773503 -0.5773503
vn 0 -1 0
vn 0 -1 0
vn 0 -1 0

vt -0.3535534 -0.4082483
vt 0.3535534 -0.4082483
vt 0 0.2041242
vt -0.5 0
vt 0 0.5
vt 0 0
vt -0.3535534 -0.4082483
vt 0.3535534 -0.4082483
vt 0 0.2041242
vt 0 0.5
vt 0.5 -4.371139E-08
vt 0 0
vt -0.3535534 -0.4082483
vt 0.3535534 -0.4082483
vt 0 0.2041242
vt 0.5 -4.371139E-08
vt 0 -0.5
vt 0 0
vt -0.3535534 -0.4082483
vt 0.3535534 -0.4082483
vt 0 0.2041242
vt 0 -0.5
vt -0.5 0
vt 0 0

g Cone_up
usemtl Player.Body
f 1/1/1 2/2/2 3/3/3
f 6/6/6 5/5/5 4/4/4
f 7/7/7 8/8/8 9/9/9
f 12/12/12 11/11/11 10/10/10
f 13/13/13 14/14/14 15/15/15
f 18/18/18 17/17/17 16/16/16
f 19/19/19 20/20/20 21/21/21
f 24/24/24 23/23/23 22/22/22

g Cone_down
v -0.5 0.5 0
v 0 0.5 -0.5
v 0 0 0
v -0.5 0.5 0
v 0 0.5 -0.5
v 0 0.5 0
v 0 0.5 -0.5
v 0.5 0.5 4.371139E-08
v 0 0 0
v 0 0.5 -0.5
v 0.5 0.5 4.371139E-08
v 0 0.5 0
v 0.5 0.5 4.371139E-08
v 0 0.5 0.5
v 0 0 0
v 0.5 0.5 4.371139E-08
v 0 0.5 0.5
v 0 0.5 0
v 0 0.5 0.5
v -0.5 0.5 0
v 0 0 0
v 0 0.5 0.5
v -0.5 0.5 0
v 0 0.5 0

vn -0.5773503 -0.5773503 -0.5773503
vn -0.5773503 -0.5773503 -0.5773503
vn -0.5773503 -0.5773503 -0.5773503
vn 0 1 0
vn 0 1 0
vn 0 1 0
vn 0.5773503 -0.5773503 -0.5773503
vn 0.5773503 -0.5773503 -0.5773503
vn 0.5773503 -0.5773503 -0.5773503
vn 0 1 0
vn 0 1 0
vn 0 1 0
vn 0.5773502 -0.5773503 0.5773503
vn 0.5773502 -0.5773503 0.5773503
vn 0.5773502 -0.5773503 0.5773503
vn 0 1 0
vn 0 1 0
vn 0 1 0
vn -0.5773503 -0.5773503 0.5773503
vn -0.5773503 -0.5773503 0.5773503
vn -0.5773503 -0.5773503 0.5773503
vn 0 1 0
vn 0 1 0
vn 0 1 0

vt -0.3535534 -0.4082483
vt 0.3535534 -0.4082483
vt 0 0.2041242
vt -0.5 0
vt 0 0.5
vt 0 0
vt -0.3535534 -0.4082483
vt 0.3535534 -0.4082483
vt 0 0.2041242
vt 0 0.5
vt 0.5 -4.371139E-08
vt 0 0
vt -0.3535534 -0.4082483
vt 0.3535534 -0.4082483
vt 0 0.2041242
vt 0.5 -4.371139E-08
vt 0 -0.5
vt 0 0
vt -0.3535534 -0.4082483
vt 0.3535534 -0.4082483
vt 0 0.2041242
vt 0 -0.5
vt -0.5 0
vt 0 0

g Cone_down
usemtl Player.Body
f 25/25/25 26/26/26 27/27/27
f 30/30/30 29/29/29 28/28/28
f 31/31/31 32/32/32 33/33/33
f 36/36/36 35/35/35 34/34/34
f 37/37/37 38/38/38 39/39/39
f 42/42/42 41/41/41 40/40/40
f 43/43/43 44/44/44 45/45/45
f 48/48/48 47/47/47 46/46/46

g Core_2
v 0.3125 0.625 0.25
v 0.0625 0.625 0.25
v 0.3125 0.875 0.25
v 0.0625 0.875 0.25
v 0.0625 0.625 0.25
v 0.0625 0.625 0
v 0.0625 0.875 0.25
v 0.0625 0.875 0
v 0.0625 0.625 0
v 0.3125 0.625 0
v 0.0625 0.875 0
v 0.3125 0.875 0
v 0.3125 0.625 0
v 0.3125 0.625 0.25
v 0.3125 0.875 0
v 0.3125 0.875 0.25
v 0.3125 0.875 0.25
v 0.0625 0.875 0.25
v 0.3125 0.875 0
v 0.0625 0.875 0
v 0.3125 0.625 0
v 0.0625 0.625 0
v 0.3125 0.625 0.25
v 0.0625 0.625 0.25

vn 0 0 1
vn 0 0 1
vn 0 0 1
vn 0 0 1
vn -1 0 0
vn -1 0 0
vn -1 0 0
vn -1 0 0
vn 0 0 -1
vn 0 0 -1
vn 0 0 -1
vn 0 0 -1
vn 1 0 0
vn 1 0 0
vn 1 0 0
vn 1 0 0
vn 0 1 0
vn 0 1 0
vn 0 1 0
vn 0 1 0
vn 0 -1 0
vn 0 -1 0
vn 0 -1 0
vn 0 -1 0

vt 0.125 -0.125
vt -0.125 -0.125
vt 0.125 0.125
vt -0.125 0.125
vt 0.125 -0.125
vt -0.125 -0.125
vt 0.125 0.125
vt -0.125 0.125
vt 0.125 -0.125
vt -0.125 -0.125
vt 0.125 0.125
vt -0.125 0.125
vt 0.125 -0.125
vt -0.125 -0.125
vt 0.125 0.125
vt -0.125 0.125
vt -0.125 0.125
vt 0.125 0.125
vt -0.125 -0.125
vt 0.125 -0.125
vt 0.125 -0.125
vt -0.125 -0.125
vt 0.125 0.125
vt -0.125 0.125

g Core_2
usemtl Player.Body
f 51/51/51 52/52/52 50/50/50 49/49/49
f 55/55/55 56/56/56 54/54/54 53/53/53
f 59/59/59 60/60/60 58/58/58 57/57/57
f 63/63/63 64/64/64 62/62/62 61/61/61
f 67/67/67 68/68/68 66/66/66 65/65/65
f 71/71/71 72/72/72 70/70/70 69/69/69

g Core_1
v 0 0.625 0.25
v -0.25 0.625 0.25
v 0 0.875 0.25
v -0.25 0.875 0.25
v -0.25 0.625 0.25
v -0.25 0.625 0
v -0.25 0.875 0.25
v -0.25 0.875 0
v -0.25 0.625 0
v 0 0.625 0
v -0.25 0.875 0
v 0 0.875 0
v 0 0.625 0
v 0 0.625 0.25
v 0 0.875 0
v 0 0.875 0.25
v 0 0.875 0.25
v -0.25 0.875 0.25
v 0 0.875 0
v -0.25 0.875 0
v 0 0.625 0
v -0.25 0.625 0
v 0 0.625 0.25
v -0.25 0.625 0.25

vn 0 0 1
vn 0 0 1
vn 0 0 1
vn 0 0 1
vn -1 0 0
vn -1 0 0
vn -1 0 0
vn -1 0 0
vn 0 0 -1
vn 0 0 -1
vn 0 0 -1
vn 0 0 -1
vn 1 0 0
vn 1 0 0
vn 1 0 0
vn 1 0 0
vn 0 1 0
vn 0 1 0
vn 0 1 0
vn 0 1 0
vn 0 -1 0
vn 0 -1 0
vn 0 -1 0
vn 0 -1 0

vt 0.125 -0.125
vt -0.125 -0.125
vt 0.125 0.125
vt -0.125 0.125
vt 0.125 -0.125
vt -0.125 -0.125
vt 0.125 0.125
vt -0.125 0.125
vt 0.125 -0.125
vt -0.125 -0.125
vt 0.125 0.125
vt -0.125 0.125
vt 0.125 -0.125
vt -0.125 -0.125
vt 0.125 0.125
vt -0.125 0.125
vt -0.125 0.125
vt 0.125 0.125
vt -0.125 -0.125
vt 0.125 -0.125
vt 0.125 -0.125
vt -0.125 -0.125
vt 0.125 0.125
vt -0.125 0.125

g Core_1
usemtl Player.Body
f 75/75/75 76/76/76 74/74/74 73/73/73
f 79/79/79 80/80/80 78/78/78 77/77/77
f 83/83/83 84/84/84 82/82/82 81/81/81
f 87/87/87 88/88/88 86/86/86 85/85/85
f 91/91/91 92/92/92 90/90/90 89/89/89
f 95/95/95 96/96/96 94/94/94 93/93/93

g Core_3
v 0 0.625 -0.0625
v -0.25 0.625 -0.0625
v 0 0.875 -0.0625
v -0.25 0.875 -0.0625
v -0.25 0.625 -0.0625
v -0.25 0.625 -0.3125
v -0.25 0.875 -0.0625
v -0.25 0.875 -0.3125
v -0.25 0.625 -0.3125
v 0 0.625 -0.3125
v -0.25 0.875 -0.3125
v 0 0.875 -0.3125
v 0 0.625 -0.3125
v 0 0.625 -0.0625
v 0 0.875 -0.3125
v 0 0.875 -0.0625
v 0 0.875 -0.0625
v -0.25 0.875 -0.0625
v 0 0.875 -0.3125
v -0.25 0.875 -0.3125
v 0 0.625 -0.3125
v -0.25 0.625 -0.3125
v 0 0.625 -0.0625
v -0.25 0.625 -0.0625

vn 0 0 1
vn 0 0 1
vn 0 0 1
vn 0 0 1
vn -1 0 0
vn -1 0 0
vn -1 0 0
vn -1 0 0
vn 0 0 -1
vn 0 0 -1
vn 0 0 -1
vn 0 0 -1
vn 1 0 0
vn 1 0 0
vn 1 0 0
vn 1 0 0
vn 0 1 0
vn 0 1 0
vn 0 1 0
vn 0 1 0
vn 0 -1 0
vn 0 -1 0
vn 0 -1 0
vn 0 -1 0

vt 0.125 -0.125
vt -0.125 -0.125
vt 0.125 0.125
vt -0.125 0.125
vt 0.125 -0.125
vt -0.125 -0.125
vt 0.125 0.125
vt -0.125 0.125
vt 0.125 -0.125
vt -0.125 -0.125
vt 0.125 0.125
vt -0.125 0.125
vt 0.125 -0.125
vt -0.125 -0.125
vt 0.125 0.125
vt -0.125 0.125
vt -0.125 0.125
vt 0.125 0.125
vt -0.125 -0.125
vt 0.125 -0.125
vt 0.125 -0.125
vt -0.125 -0.125
vt 0.125 0.125
vt -0.125 0.125

g Core_3
usemtl Player.Body
f 99/99/99 100/100/100 98/98/98 97/97/97
f 103/103/103 104/104/104 102/102/102 101/101/101
f 107/107/107 108/108/108 106/106/106 105/105/105
f 111/111/111 112/112/112 110/110/110 109/109/109
f 115/115/115 116/116/116 114/114/114 113/113/113
f 119/119/119 120/120/120 118/118/118 117/117/117

